<?xml version="1.0" encoding="UTF-8" standalone="no"?>
<!-- Generator: Adobe Illustrator 22.1.0, SVG Export Plug-In . SVG Version: 6.00 Build 0)  -->

<svg
   xmlns:dc="http://purl.org/dc/elements/1.1/"
   xmlns:cc="http://creativecommons.org/ns#"
   xmlns:rdf="http://www.w3.org/1999/02/22-rdf-syntax-ns#"
   xmlns:svg="http://www.w3.org/2000/svg"
   xmlns="http://www.w3.org/2000/svg"
   xmlns:sodipodi="http://sodipodi.sourceforge.net/DTD/sodipodi-0.dtd"
   xmlns:inkscape="http://www.inkscape.org/namespaces/inkscape"
   version="1.1"
   id="Layer_1"
   x="0px"
   y="0px"
   viewBox="0 0 20 18"
   xml:space="preserve"
   sodipodi:docname="icon-close.svg"
   width="20"
   height="18"
   inkscape:version="0.92.1 r15371"><metadata
     id="metadata76"><rdf:RDF><cc:Work
         rdf:about=""><dc:format>image/svg+xml</dc:format><dc:type
           rdf:resource="http://purl.org/dc/dcmitype/StillImage" /><dc:title></dc:title></cc:Work></rdf:RDF></metadata><defs
     id="defs74" /><sodipodi:namedview
     pagecolor="#ffffff"
     bordercolor="#666666"
     borderopacity="1"
     objecttolerance="10"
     gridtolerance="10"
     guidetolerance="10"
     inkscape:pageopacity="0"
     inkscape:pageshadow="2"
     inkscape:window-width="1855"
     inkscape:window-height="1056"
     id="namedview72"
     showgrid="true"
     inkscape:zoom="21.260344"
     inkscape:cx="6.2748354"
     inkscape:cy="15.997827"
     inkscape:window-x="65"
     inkscape:window-y="24"
     inkscape:window-maximized="1"
     inkscape:current-layer="Layer_1"
     showguides="false"
     inkscape:pagecheckerboard="true"><inkscape:grid
       type="xygrid"
       id="grid97" /></sodipodi:namedview><style
     type="text/css"
     id="style63">
	.st0{fill:none;stroke:#FFFFFF;stroke-width:2;}
	.st1{fill:#FFFFFF;}
</style><path
     style="fill:#ffffff;stroke:none;stroke-width:0.04202207"
     d="M 1.0263471,17.266163 C 1.1283247,17.151256 2.892221,15.181187 4.9461169,12.888235 7.0000127,10.595282 8.6855664,8.7057471 8.6917922,8.6892671 8.6979964,8.6727831 7.1760135,6.9529926 5.3095618,4.8675012 3.4431097,2.7820105 1.9042747,1.058667 1.8899284,1.03785 1.8736204,1.014186 2.4515639,1 3.4319223,1 H 5 l 2.744304,3.0642069 c 1.5093671,1.6853142 2.756808,3.0632715 2.772088,3.0621261 0.01529,-0.00116 1.265814,-1.3798763 2.778964,-3.0638486 l 2.751181,-3.0617685 1.566799,-3.579e-4 c 1.242112,-2.837e-4 1.559734,0.00995 1.532712,0.049385 -0.01874,0.027362 -1.590692,1.7867907 -3.493213,3.9098488 -1.902519,2.1230583 -3.477364,3.8814984 -3.499652,3.9076454 -0.02797,0.0328 1.118275,1.3593378 3.696493,4.2779528 2.055359,2.326723 3.756633,4.252794 3.780608,4.280152 0.0347,0.03959 -0.277426,0.04974 -1.529816,0.04974 h -1.573406 l -3.102378,-3.501791 c -1.706307,-1.925986 -3.117284,-3.501866 -3.135505,-3.50195 -0.01821,-7.9e-5 -1.4359654,1.574775 -3.1505454,3.499688 l -3.1174182,3.499842 -1.5901409,0.0022 -1.59014113,0.0022 z"
     id="path3777"
     inkscape:connector-curvature="0" /></svg>